<?xml version="1.0" encoding="UTF-8"?>
<svg version="1.1" viewBox="0 0 2048 1091" width="334" height="178" xmlns="http://www.w3.org/2000/svg">
<path transform="translate(482,319)" d="m0 0h11v3l-16 25-24 38-10 15-7 11-10 15-11 17-19 28-17 26-12 17-13 18-14 20-8 11 8-7 11-12 7-8 12-13 9-9 11-9 13-9 16-8 11-3h22l9 4 8 9 2 5v16l-4 9-7 9-10 9-16 8-11 4-18 6v3l6 8 4 10 1 8-2 10-10 28-3 14 3 7 2 1h7l15-4 19-10 13-10 11-9 16-15 11-11 7-8 12-15 13-18 14-20 13-18 13-20 4-6 2-1h30l-4 7-17 25-12 17-14 20-17 25-10 15-9 14-8 14-4 9-1 5v7l6 7h7l16-5 11-6 18-13 14-12 13-12 14-14 9-11 9-12 11-16 13-20 25-40 2-2 5-1 25-1-2 5-10 15-14 19-12 16-10 14-12 16 5-4 9-10 9-11 12-13 24-24 15-11 17-10 15-5 7-1h9l10 3 6 4 6 7 3 6 1 9-2 10-6 14-13 20-14 19-10 13-13 18-7 10-8 14-2 6v7l2 6 5 2 2 1h8l12-3 13-5 14-9 11-9 10-9 23-23 7-8 9-10 9-11 14-18 11-16 8-9h2l-2 6-7 11-10 14-8 10-11 14-10 11-7 8-11 12-16 16-8 7-14 11-15 9-15 6-8 2h-14l-10-4-8-7-5-10-1-3v-13l5-13 7-13 12-17 9-11 11-14 13-17 10-15 6-13 1-10-3-5v-2l-7-2h-7l-11 3-16 8-19 14-13 12-19 19-9 11-11 13-20 25-11 16-10 15-13 22-3 5-1 1h-29l1-4 10-15 7-11 10-17-5 5-13 12-13 10-14 10-16 9-18 6h-13l-9-4-7-8-3-9 1-13 5-15 6-12-5 5-5 4-16 16-11 9-17 12-10 6-15 6-12 3h-13l-10-3-8-6-5-9v-14l5-16 12-26 2-6v-11l-1-1-20 1h-18l-1-5 2-2 33-1 16-3 11-4 10-6 7-6 7-10 3-10 1-7v-8l-4-9-6-4-8-1-13 4-16 10-14 12-23 23-9 11-12 14-11 14-11 15-13 20-17 28-5 9-2 2h-31v-3l10-13 13-21 8-13v-2l-9 9-17 13-18 12-16 8-20 8-15 4-19 3h-20l-15-3-14-7-9-8-7-12-3-13v-9l3-12 4-6 9-8 8-3h12l8 5 3 4 1 8-3 7-4 5-6 3-7-2-5-5v-2h-5l-5 9-1 11 2 9 6 9 9 7 12 4 6 1h17l14-7 7-8 6-13 2-14v-9l-3-15-7-20-7-19-2-8v-19l4-11 6-8 10-9 10-5 13-3h18l16 4 10 6 6 7 4 10v10l-4 8-7 6-7 3-11 1-1-3 5-12 1-13-3-9-6-7-6-3-4-1h-9l-11 4-7 8-3 7-1 12 2 12 8 21 8 19 5 16 1 6v9l-4 13-5 9-8 10-17 13-6 3 18-4 22-9 12-6 15-10 11-8 11-9 17-16 9-10 12-16 26-40 11-17 16-25 11-17 14-22 15-23 13-20 14-22 13-20 21-33 5-6zm22 275m-1 1 1 2z" fill="#19B4FE"/>
<path transform="translate(1462,427)" d="m0 0 10 1 6 4 4 8-1 14-9 55-1 8 7-10 14-23 12-19 7-10 6-5 2-1h8l10 5 3 5v11l-5 8-33 33-8 7-13 13 49-20 22-8h11l6 4 5 6 1 8-4 8-4 4-15 3-61 9-4 1 15 4 52 13 11 4 5 6 2 10-3 8-9 9-7-1-23-11-24-13-19-11-7-3 9 11 12 14 8 10 9 11 12 15 3 7-2 9-8 8-4 2h-8l-5-3-5-6-8-16-14-29-12-24 3 35 2 32v11l-3 9-6 5-2 1h-9l-7-3-5-5-1-3v-10l12-65 1-11-26 44-15 24-8 7-3 1h-8l-6-4-6-9v-8l6-10 41-41 8-7 3-4-25 10-31 13-19 7-7 1-5-4-5-12 1-9 6-7 16-4 56-9 11-1v-2l-14-2-61-14-6-3-5-6-1-3v-9l5-9 7-5 8 1 36 18 19 10 10 6 7 3-7-9-12-14-13-15-9-11-9-12-4-7 1-6 6-8 8-5h7l6 4 7 10 26 52 5 8 2 4-3-30-3-36v-18l4-6z" fill="#14B2FE"/>
<path transform="translate(1765,453)" d="m0 0h10l3 4 12 39 15 53 15 52 5 18v2h2l3-10 18-62 20-69 7-24 2-2h21l-2 9-14 46-24 80-17 56-7 20-3 3h-7l-5-2-3-4-12-40-12-41-18-62-5-16-1-1-4 17-15 52-23 80-6 16-2 1h-9l-5-4-12-37-18-60-22-73-12-40h23l5 15 21 72 16 56 7 22 1 2 3-8 9-34 15-52 12-42 8-26 3-5z" fill="#1CB5FE"/>
<path transform="translate(761,484)" d="m0 0h9l10 3 6 4 6 7 3 6 1 9-2 10-6 14-13 20-14 19-10 13-13 18-7 10-8 14-2 6v7l2 6 5 2 2 1h8l12-3 13-5 14-9 11-9 10-9 23-23 7-8 9-10 9-11 14-18 11-16 8-9h2l-2 6-7 11-10 14-8 10-11 14-10 11-7 8-11 12-16 16-8 7-14 11-15 9-15 6-8 2h-14l-10-4-8-7-5-10-1-3v-13l5-13 7-13 12-17 9-11 11-14 13-17 10-15 6-13 1-10-3-5v-2l-7-2h-7l-11 3-16 8-19 14-13 12-19 19-9 11-11 13-20 25-11 16-10 15-13 22-3 5-1 1h-29l1-4 10-15 7-11 10-17-5 5-13 12-13 10-14 10-16 9-18 6h-13l-9-4-6-6 1-2 7 6 9 4 9 1-3-3-7-6 1-2 5 5h7l16-5 11-6 18-13 14-12 13-12 14-14 9-11 9-12 11-16 13-20 25-40 2-2 5-1 25-1-2 5-10 15-14 19-12 16-10 14-12 16 5-4 9-10 9-11 12-13 24-24 15-11 17-10 15-5z" fill="#16B3FE"/>
<path transform="translate(215,484)" d="m0 0h18l16 4 10 6 6 7 4 10v10l-4 8-7 6-7 3-11 1-1-3 5-12 1-13-3-9-6-7-6-3-4-1h-9l-11 4-7 8-3 7-1 12 2 12 8 21 8 19 5 16 1 6v9l-4 13-5 9-8 10-17 13-6 3 18-4 22-9 12-6 15-10 11-8 11-9 17-16 5-4-2 5-6 9-11 11-17 13-18 12-16 8-20 8-15 4-19 3h-20l-15-3-14-7-9-8-7-12-3-13v-9l3-12 4-6 9-8 8-3h12l8 5 3 4 1 8-3 7-4 5-6 3-7-2-5-5v-2h-5l-5 9-1 11 2 9 6 9 9 7 12 4 6 1h17l14-7 7-8 6-13 2-14v-9l-3-15-7-20-7-19-2-8v-19l4-11 6-8 10-9 10-5z" fill="#18B3FE"/>
<path transform="translate(1049,432)" d="m0 0h19l12 3 11 6 10 8 9 12 4 8 1 6-3 2-7-1-5-5-9-12-8-7-10-5-9-2h-10l-12 3-8 4-10 9-7 11-5 13-2 16 1 16 4 12 8 12 7 7 11 7 12 3h12l11-3 10-6 7-6 7-11 3-11-1-5-38-1-2-2v-8l1-1 22-1h32l1 1v65l-6 1-4-3-2-11v-6l-7 4-9 8-8 5-16 4h-17l-15-4-10-6-10-9-7-9-8-16-3-11-1-8v-13l2-12 4-12 6-11 8-10 9-8 16-8z" fill="#1BB4FE"/>
<path transform="translate(576,488)" d="m0 0h30l-4 7-17 25-12 17-14 20-17 25-10 15-9 14-8 14-4 9-1 5v7l2 5 5 4 3 2v2h-9l-12-6-6-5-3-9 1-13 5-15 6-12-4 1-2-1 7-7 6-9 3-6 14-18 11-16 10-14 14-20 13-20zm-72 106m-1 1 1 2z" fill="#0EB0FE"/>
<path transform="translate(1223,434)" d="m0 0h14v124l7-1h50l10 1 1 1v9l-2 1h-80z" fill="#04ADFE"/>
<path transform="translate(632,398)" d="m0 0 8 1 6 4 3 4 1 3v7l-3 6-7 6h-11l-6-4-4-7v-9l4-6 5-4z" fill="#18B3FE"/>
<path transform="translate(289,587)" d="m0 0v3l-6 10-12 12-17 13-18 12-16 8-20 8-15 4-19 3h-8v-1l11-2 6-3 18-4 17-6 16-7 19-12 12-9 11-9 17-16z" fill="#34BDFE"/>
<path transform="translate(604,596)" d="m0 0v3l-14 14 7-3-2 4-12 11-13 10-14 10-16 9-18 6h-13l-9-4-6-6 1-2 7 6 9 4 9 1-3-3-7-6 1-2 5 5h7l16-5 11-6 18-13 14-12 13-12z" fill="#36BDFE"/>
<path transform="translate(879,523)" d="m0 0h2l-2 6-7 11-10 14-8 10-11 14-10 11-7 8-11 12-2 1v-2l-7 6h-2v2l-8 7-3 3-2-1 30-30 7-8 9-10 9-11 14-18 11-16z" fill="#FBFDFE"/>
<path transform="translate(1223,434)" d="m0 0h14l-1 2h-10l-1 133h-2z" fill="#FEFEFE"/>
<path transform="translate(1020,445)" d="m0 0 2 1-8 8-8 13-5 13-2 8-1 9v9l2 14 4 13 7 12 10 11 11 7 8 4-3 1-12-6-12-11-6-8-8-16-3-11-1-8v-13l2-12 4-12 6-11 8-10z" fill="#FEFEFE"/>
<path transform="translate(289,587)" d="m0 0v3l-6 10-12 12-17 13-5 3-1-3-2-1 11-8 11-9 17-16z" fill="#FEFEFE"/>
<path transform="translate(172,534)" d="m0 0 2 4 7 21 7 19 5 17 1 6v11l-4 16-3 5-1-2 3-7 2-14v-9l-3-15-7-20-7-19-2-8z" fill="#FEFEFE"/>
<path transform="translate(561,551)" d="m0 0v3l-16 24-10 14-7 11-9 15-8 16-2 12h-1v-10l7-16 8-14 8-12 26-38z" fill="#FEFEFE"/>
<path transform="translate(207,645)" d="m0 0 3 1-5 3 1 2-17 5-14 3-17 1v-1l11-2 6-3 18-4z" fill="#FCFDFE"/>
<path transform="translate(795,511)" d="m0 0 1 2-2 10-6 14-13 20-14 19-10 13-5 5 2-5 11-14 13-18 10-15 8-16 4-14z" fill="#FEFEFE"/>
<path transform="translate(1115,503)" d="m0 0 3 1v65h-2z" fill="#FEFEFE"/>
<path transform="translate(509,581)" d="m0 0 1 2-8 11-4 5 2 1-4 5-5 5-5 3v-4h-3l15-15 7-8z" fill="#FEFEFE"/>
<path transform="translate(879,523)" d="m0 0h2l-2 6-7 11-5 5-6 8h-2l2-7 8-11 7-9z" fill="#64CCFE"/>
<path transform="translate(494,648)" d="m0 0 8 6 9 4 9 1-3-3-7-6 1-2 5 5h7l10-2-5 5 1 2-7 2h-13l-9-4-6-6z" fill="#FEFEFE"/>
<path transform="translate(696,505)" d="m0 0v3l-14 19-12 16-9 13-1-3 11-16 9-12 14-18z" fill="#FEFEFE"/>
<path transform="translate(1054,443)" d="m0 0h12l13 4 11 7 9 11 5 7 8 4-4 1-6-3-11-15-8-7-10-5-9-2-10-1z" fill="#FEFEFE"/>
<path transform="translate(409,557)" d="m0 0 3 1-15 5-10 1h-28l-5 3 1-4 1-1 33-1 16-3z" fill="#FEFEFE"/>
<path transform="translate(1498,511)" d="m0 0 2 1-19 19 17-7 3 1-14 6-7 1-1-4 12-11z" fill="#FEFEFE"/>
<path transform="translate(1453,564)" d="m0 0h3l-1 10-7 29h-1l1-11 4-20z" fill="#FEFEFE"/>
<path transform="translate(734,609)" d="m0 0 1 2-9 15-4 8-1 3v7l1 4-4-4-1-7 11-20z" fill="#FEFEFE"/>
<path transform="translate(375,638)" d="m0 0 2 3 4 7v2l12 6 7 2 11 1v1h-13l-10-3-8-6-5-9z" fill="#FEFEFE"/>
<path transform="translate(576,488)" d="m0 0h30l-2 3-1-1-26 1-6 4 2-5z" fill="#FEFEFE"/>
<path transform="translate(596,610)" d="m0 0v3l-13 12-3 1 2-4 7-8z" fill="#FEFEFE"/>
<path transform="translate(443,501)" d="m0 0 3 3 1 3v10l-4 12-1-3 2-11v-8z" fill="#FEFEFE"/>
<path transform="translate(1431,558)" d="m0 0h7l-3 2-22 9-5 1 4-3z" fill="#FEFEFE"/>
<path transform="translate(747,651)" d="m0 0 3 1-11 5-7-1-2-2z" fill="#FEFEFE"/>
<path transform="translate(661,567)" d="m0 0v3l-9 11-6 7v-3l11-14z" fill="#FEFEFE"/>
<path transform="translate(111,584)" d="m0 0 2 1-8 9-4 9-2 4 1-8 4-8z" fill="#EBF7FE"/>
<path transform="translate(347,555)" d="m0 0v3l-13 15v-3l7-9z" fill="#FEFEFE"/>
<path transform="translate(121,603)" d="m0 0 4 2 5 3 6-1 4-2-1 3-6 3-7-2z" fill="#FEFEFE"/>
<path transform="translate(772,494)" d="m0 0 4 2 2 3v7l-3 7-1-3 1-10z" fill="#FEFEFE"/>
<path transform="translate(1530,636)" d="m0 0v3l-7 7-4 2h-8v-1l8-2 8-6z" fill="#FEFEFE"/>
<path transform="translate(243,487)" d="m0 0 6 1 10 6 4 4-1 2-10-8-9-4z" fill="#FEFEFE"/>
<path transform="translate(1063,504)" d="m0 0 4 1-3 2 1 5 10 2v1h-11l-2-2v-8z" fill="#FEFEFE"/>
<path transform="translate(465,320)" d="m0 0h12v1l-12 3-5 4 2-5z" fill="#FEFEFE"/>
<path transform="translate(1390,452)" d="m0 0 1 2-1 6 3 9-4-4-2-4 1-6z" fill="#FEFEFE"/>
<path transform="translate(417,652)" d="m0 0 4 1-7 3h-6l-2-2z" fill="#FEFEFE"/>
<path transform="translate(879,523)" d="m0 0h2l-2 6-3 3v-3l-3 2 2-4z" fill="#F4FBFE"/>
<path transform="translate(1350,514)" d="m0 0 4 5 10 6-3 1-6-3-5-6z" fill="#FEFEFE"/>
</svg>
